<svg aria-hidden="true" style="position: absolute; width: 0; height: 0; overflow: hidden;" version="1.1" xmlns="http://www.w3.org/2000/svg" xmlns:xlink="http://www.w3.org/1999/xlink">
<defs>
<symbol id="icon-logo1" viewBox="0 0 25 32">
<path fill="#f9f7f8" style="fill: var(--color1, #f9f7f8)" d="M0 0v15.863c1.045 0 2.106 0.042 3.118-0.273 1.008-0.313 1.877-1.006 2.899-1.268 0.517-0.133 1.008-0.105 1.532-0.031 0.209 0.030 0.546 0.115 0.719-0.048 0.419-0.392 0.38-0.979 0.594-1.444 0.209-0.455 0.603-0.879 0.724-1.368 0.19-0.767 0.054-1.507 0.916-1.938 0.596-0.298 1.077-0.087 1.696-0.086v0.164c-0.874-0.002-1.995-0.32-2.324 0.82-0.068 0.236-0.028 0.522-0.028 0.766l0.875-0.707 1.203-0.004v0.109c-0.511-0.022-1.035-0.203-1.422 0.219l0.164 1.039 1.094-0.458 1.586-0.254v0.109l-1.313 0.219v0.055c0.34 0 0.869 0.002 0.985 0.383-0.758 0.068-1.782 0.965-1.969 1.696l0.328 0.164 0.821-0.722 1.695-0.864c-0.542 0.639-2.117 0.742-2.271 1.698-0.049 0.307 0.141 0.633 0.192 0.928 2.136-0.27 4.074 0.64 6.127 1.025 1.42 0.266 2.894 0.039 4.321 0.069v0.164l-3.063 0.055v0.109l0.711 0.164-0.055 0.492 0.711-0.109c-0.272 0.509-0.802 0.678-1.308 0.854-1.197 0.417-2.481 0.306-3.725 0.404-0.013 0.425-0.284 0.644-0.499 0.984-0.241 0.38-0.421 0.825-0.675 1.189-0.217 0.311-0.52 0.563-0.714 0.891-0.309 0.523-0.313 1.192-0.637 1.745-0.159 0.272-0.683 1.246-1.030 1.188-0.685-0.116-0.185-0.924-0.166-1.292 0.033-0.658-0.736-1.085 0.002-1.605 0.104-0.073 0.209-0.11 0.328-0.145-0.147 0.234-0.479 0.232-0.534 0.548-0.074 0.425 0.34 0.693 0.358 1.093 0.016 0.376-0.306 0.691-0.189 1.086 0.047 0.158 0.217 0.194 0.36 0.139 0.241-0.093 0.351-0.419 0.476-0.623 0.401-0.65 0.5-1.244 0.806-1.915 0.446-0.978 1.447-1.773 1.841-2.79-0.204 0.032-0.453 0.189-0.656 0.128-0.285-0.085-0.378-0.422-0.712-0.375-0.782 0.11-1.414 0.677-2.242 0.559-0.92-0.131-1.752-0.762-2.68-0.804 0.516 2.197 1.845 4.086 2.641 6.181 0.153 0.404 0.079 0.801 0.182 1.203 0.156 0.609 0.501 1.183 0.599 1.805 0.11 0.694-0.005 1.432 0.026 2.133 0.035 0.798 0.565 2.155 1.475 1.969-0.004-0.492-0.432-0.834-0.423-1.315 0.011-0.614 0.98-0.784 0.419-1.419-0.085-0.096-0.179-0.184-0.269-0.275 0.105 0.049 0.186 0.092 0.273 0.172 0.714 0.658-0.328 0.953-0.27 1.688 0.038 0.477 0.465 0.739 0.38 1.258l3.173 0.055v0.164h-5.744v-0.164h1.86c-0.271-0.64-0.82-1.104-0.993-1.805-0.208-0.844 0.010-1.671-0.049-2.514-0.043-0.606-0.447-1.272-0.613-1.862-0.119-0.426-0.076-0.89-0.244-1.304-0.342-0.845-0.657-1.832-1.1-2.63-0.574-1.034-1.325-2.118-1.432-3.342-1.023 0-1.986 0.363-3.009 0.433-1.862 0.128-4.442-0.484-5.744-1.91 0.566 0.18 1.086 0.662 1.61 0.952 0.552 0.306 1.223 0.473 1.837 0.606 0.966 0.209 1.975 0.261 2.954 0.122 0.774-0.11 1.516-0.367 2.297-0.367-0-0.205-0-0.402-0.057-0.602-0.058-0.202-0.125-0.626-0.302-0.756-0.217-0.159-0.472 0.014-0.682 0.080-0.588 0.184-1.048 0.696-1.694 0.731v-0.164l0.438-0.055c-0.199-0.531-0.039-0.627 0-1.149-0.573 0-1.263-0.018-1.805 0.182-0.675 0.249-1.221 0.693-1.969 0.694v-0.109l0.602-0.109v-0.055h-0.164l0.055-0.273c-0.249-0.177 0.011-0.417 0.219-0.492v-0.055l-2.188 0.319-1.258-0.045v16.027h24.67v-32h-24.67z"></path>
<path fill="#000" style="fill: var(--color2, #000)" d="M15.207 0.547v0.164l0.109-0.055v-0.055l-0.109-0.055z"></path>
<path fill="#7f7d7d" style="fill: var(--color3, #7f7d7d)" d="M15.316 0.766l-0.055 0.055 0.164 0.547h0.055v-0.438l0.274 0.547c0.137-0.352-0.121-0.611-0.438-0.711z"></path>
<path fill="#7e7c7c" style="fill: var(--color4, #7e7c7c)" d="M14.66 1.203l0.602 1.039-0.492-0.93 0.711 0.383-0.82-0.492z"></path>
<path fill="#484645" style="fill: var(--color5, #484645)" d="M15.754 2.954l-0.492 1.039h0.055l0.547-1.039h-0.109z"></path>
<path fill="#626060" style="fill: var(--color6, #626060)" d="M14.66 5.087l-1.149 1.915h0.055l1.203-1.915h-0.109z"></path>
<path fill="#cccaca" style="fill: var(--color7, #cccaca)" d="M16.246 7.603v0.164h0.055l0.055-0.164h-0.109z"></path>
<path fill="#999697" style="fill: var(--color8, #999697)" d="M13.183 7.713l-0.164 1.149h0.055c0.124-0.323 0.126-0.849 0.438-1.039v-0.055c-0.153-0.025-0.199-0.055-0.219 0.109h-0.055l-0.055-0.164z"></path>
<path fill="#6c6a6a" style="fill: var(--color9, #6c6a6a)" d="M14.824 8.752l-0.055 0.219 0.766 0.164c-0.295 0.287-0.761 0.51-0.711 0.985h0.055l0.93-1.149c-0.446-0.038-0.593 0.033-0.985-0.219z"></path>
<path fill="#2b2a2a" style="fill: var(--color10, #2b2a2a)" d="M16.903 9.026l-0.055 0.164 0.109 0.328h0.055c0.060-0.211 0.049-0.337-0.109-0.492z"></path>
<path fill="#d4d2d3" style="fill: var(--color11, #d4d2d3)" d="M16.903 9.19l-0.383 0.656 0.328-0.164 0.164-0.492h-0.109z"></path>
<path fill="#626061" style="fill: var(--color12, #626061)" d="M22.263 9.682l0.93 0.52 0.93 0.903h-0.328l0.164 0.438-0.164-0.055c0.226 0.341 0.212-0.141 0.109-0.328h0.273c-0.122-0.796-1.228-1.279-1.915-1.477z"></path>
<path fill="#cbc9ca" style="fill: var(--color13, #cbc9ca)" d="M13.949 9.737l0.055 0.164h0.055v-0.164h-0.109z"></path>
<path fill="#514e4f" style="fill: var(--color14, #514e4f)" d="M16.356 9.737l0.109 0.164 0.055-0.055-0.055-0.109h-0.109z"></path>
<path fill="#6e6c6c" style="fill: var(--color15, #6e6c6c)" d="M20.896 9.737c0 0.218-0.536 0.055-0.711 0.055v0.055c0.299 0.056 0.666 0.126 0.93-0.055l-0.219-0.055z"></path>
<path fill="#c6c5c5" style="fill: var(--color16, #c6c5c5)" d="M9.791 10.065v0.164h0.055l0.055-0.164h-0.109z"></path>
<path fill="#000" style="fill: var(--color2, #000)" d="M16.465 10.229v0.109h0.109v-0.109h-0.109z"></path>
<path fill="#8d8b8b" style="fill: var(--color17, #8d8b8b)" d="M14.168 10.338l0.055 0.383h0.055v-0.383h-0.109z"></path>
<path fill="#898687" style="fill: var(--color18, #898687)" d="M23.138 10.995l-0.547-0.383c0.052 0.112 0.593 0.754 0.661 0.365 0.030-0.173-0.215-0.422-0.278-0.584l0.82 0.492c-0.076-0.145-0.776-0.848-0.884-0.42-0.042 0.165 0.164 0.385 0.228 0.53z"></path>
<path fill="#000" style="fill: var(--color2, #000)" d="M15.809 10.503v0.055h0.383l-0.055-0.164-0.328 0.109z"></path>
<path fill="#7f7d7e" style="fill: var(--color19, #7f7d7e)" d="M15.644 10.448v0.219h0.109v-0.219h-0.109z"></path>
<path fill="#434242" style="fill: var(--color20, #434242)" d="M15.754 10.448v0.164h0.164v-0.055c-0.107-0.036-0.14-0.055 0-0.055l-0.164-0.055z"></path>
<path fill="#494847" style="fill: var(--color21, #494847)" d="M14.113 10.557v0.164h0.109v-0.164h-0.109z"></path>
<path fill="#3c3739" style="fill: var(--color22, #3c3739)" d="M14.441 10.612v0.055l1.203 0.055v-0.109h-1.203z"></path>
<path fill="#fee5d2" style="fill: var(--color23, #fee5d2)" d="M9.409 11.815h-0.055l-0.514 0.985-0.132 0.656-0.502 1.040-2.297-0.026-2.68 1.175v0.055h0.219v0.055c-0.227 0.029-0.574 0.416-0.219 0.492-0.027 0.159-0.061 0.236 0.109 0.273v0.055l-0.602 0.109v0.109c0.778-0 1.322-0.434 2.024-0.694 0.525-0.194 1.195-0.182 1.75-0.182-0.078 0.515-0.281 0.634 0 1.149l-0.438 0.055v0.164c0.871-0.021 1.517-1.030 2.407-0.82l-0.055-0.93 0.547 0.711-0.383-0.274v0.492h0.055v-0.219c0.329 0.197 0.939 0.164 1.175 0.446 0.251 0.3 0.373 1.223 0.745 1.336 0.557 0.169 0.529-0.379 0.979-0.414v-0.219c0.498 0.010 0.972 0.129 1.477 0.107 0.387-0.017 0.79-0.143 1.149 0.057 0.288-0.381 0.531-0.287 0.93-0.164-0.193-0.379-0.694-0.599-1.039-0.83-0.676-0.452-1.286-1.019-1.969-1.454-0.185-0.118-0.556 0.086-0.661-0.086-0.104-0.171 0.174-0.235 0.278-0.256-0.054-0.39-0.205-1.168-0.656-1.203 0.296-0.718 1.176-1.572 1.969-1.696-0.069-0.411-0.651-0.383-0.985-0.383v-0.055l1.313-0.219v-0.109l-1.64 0.254-1.040 0.458-0.055-1.149c-0.393 0.146-0.661 0.644-0.878 0.985-0.087 0.137-0.206 0.364-0.326 0.164z"></path>
<path fill="#000" style="fill: var(--color2, #000)" d="M23.795 10.995v0.109h0.109l-0.109-0.109zM24.087 11.031v0z"></path>
<path fill="#7e716f" style="fill: var(--color24, #7e716f)" d="M9.737 11.104v0.492h0.055l0.164-0.328-0.219-0.164z"></path>
<path fill="#746154" style="fill: var(--color25, #746154)" d="M11.542 13.62l0.164 1.149c-0.209 0.024-0.318 0.067-0.383 0.274h0.055l0.328-0.164v0.219l-0.055-1.477h-0.109z"></path>
<path fill="#b5a499" style="fill: var(--color26, #b5a499)" d="M5.744 14.386v0.055l1.586-0.055v-0.055h-0.93v-0.055h0.875c-0.436-0.183-1.1-0.037-1.532 0.109z"></path>
<path fill="#d6c6bd" style="fill: var(--color27, #d6c6bd)" d="M8.041 14.332v0.055h0.109v0.055h-0.328v0.055c0.184 0 0.339 0.039 0.383-0.164h-0.164z"></path>
<path fill="#c4b9ac" style="fill: var(--color28, #c4b9ac)" d="M8.697 14.55v0.164h0.055l0.055-0.164h-0.109z"></path>
<path fill="#a19e9f" style="fill: var(--color29, #a19e9f)" d="M11.815 14.769v0.055l0.164 0.109c0.874-0.486 2.196 0.156 3.118 0.164-0.863-0.542-2.31-0.328-3.282-0.328z"></path>
<path fill="#321302" style="fill: var(--color30, #321302)" d="M11.761 14.824v0.109h0.164v-0.109h-0.164z"></path>
<path fill="#fee5d2" style="fill: var(--color23, #fee5d2)" d="M12.034 14.824c0.109 0.338 0.498 0.542 0.766 0.755 0.684 0.545 1.46 0.957 2.133 1.513 0.368 0.304 0.349 0.789 0.875 0.795v-0.055c-0.244-0.019-0.347-0.102-0.438-0.328 1.020-0.021 2.039-0.068 3.063-0.054 0.702 0.009 1.356 0.097 1.86-0.547l-0.438-0.055 0.055-0.492-0.711-0.164 0.164-0.109c-0.34-0.143-0.833-0.072-1.203-0.116-0.299-0.036-0.566-0.179-0.875-0.181-0.863-0.004-1.762 0.204-2.626 0.053-0.962-0.168-1.639-1.011-2.626-1.014z"></path>
<path fill="#fff" style="fill: var(--color31, #fff)" d="M12.472 14.824v0.055c0.584 0.171 1.013 0.672 1.587 0.842 1.022 0.304 2.129 0.088 3.172 0.087-0.423-0.26-0.999-0.353-1.477-0.478-1.101-0.287-2.137-0.507-3.282-0.507z"></path>
<path fill="#150000" style="fill: var(--color32, #150000)" d="M11.432 14.879l-0.055 0.219h0.328v-0.055l-0.274-0.164z"></path>
<path fill="#e6d5c8" style="fill: var(--color33, #e6d5c8)" d="M11.542 14.879v0.109h0.164v-0.109h-0.164z"></path>
<path fill="#907665" style="fill: var(--color34, #907665)" d="M11.815 14.933v0.055l1.586 1.149 0.055-0.055c-0.328-0.359-1.147-1.149-1.641-1.149z"></path>
<path fill="#d4baa8" style="fill: var(--color35, #d4baa8)" d="M10.12 14.933v0.055h0.274v0.055l-0.656-0.055v0.055l0.711 0.055v-0.164h-0.328z"></path>
<path fill="#a6958a" style="fill: var(--color36, #a6958a)" d="M15.097 15.097v0.055c1.852 0.787 3.825 0.905 5.798 0.821l-1.75-0.023-2.352-0.423-1.696-0.429z"></path>
<path fill="#a6a4a4" style="fill: var(--color37, #a6a4a4)" d="M0 15.863v0.109c1.192 0.051 2.767 0.122 3.829-0.547l-1.641 0.358-2.188 0.080z"></path>
<path fill="#bda89b" style="fill: var(--color38, #bda89b)" d="M8.424 15.535v0.274h0.055l0.109-0.219-0.164-0.055z"></path>
<path fill="#735a4d" style="fill: var(--color39, #735a4d)" d="M8.424 15.809v0.273h0.055l0.109-0.274h-0.164z"></path>
<path fill="#c0bdbc" style="fill: var(--color40, #c0bdbc)" d="M20.239 15.863v0.055h0.656v0.055h-0.328v0.055l1.422-0.055v-0.055h-0.273v-0.055h-1.477z"></path>
<path fill="#c4c0c1" style="fill: var(--color41, #c4c0c1)" d="M22.154 15.863l-0.164 0.109v0.055c0.164-0.003 0.238 0.003 0.273-0.164h-0.109z"></path>
<path fill="#cfbcb3" style="fill: var(--color42, #cfbcb3)" d="M8.533 15.918v0.383h0.055l0.055-0.383h-0.109z"></path>
<path fill="#f9f7f8" style="fill: var(--color1, #f9f7f8)" d="M8.643 16.246c0.003 0.347 0.162 1.352 0.416 1.594 0.175 0.167 0.563 0.192 0.788 0.276 0.811 0.306 1.633 0.636 2.516 0.526 0.581-0.072 1.115-0.427 1.696-0.537l0.055-0.656-2.571-0.055v0.219c-0.437 0.015-0.426 0.558-0.928 0.414-0.438-0.126-0.493-1.059-0.796-1.381-0.217-0.23-0.868-0.261-1.175-0.4z"></path>
<path fill="#a3a19f" style="fill: var(--color43, #a3a19f)" d="M20.458 16.738l0.055 0.164h0.055v-0.164h-0.109z"></path>
<path fill="#6e5f59" style="fill: var(--color44, #6e5f59)" d="M14.879 17.121l0.219 0.273-0.328-0.055c0.295 0.247 0.435-0.002 0.219-0.273l-0.109 0.055z"></path>
<path fill="#aeacac" style="fill: var(--color45, #aeacac)" d="M1.258 17.34v0.055l0.219 0.055v-0.055l-0.219-0.055z"></path>
<path fill="#2b2a2a" style="fill: var(--color10, #2b2a2a)" d="M15.152 17.34l-0.109 0.219 0.219 0.438h0.274l-0.383-0.656z"></path>
<path fill="#555253" style="fill: var(--color46, #555253)" d="M14.168 17.45c-0.254 1.067 0.768 1.566 1.313 0.547h-0.219c-0.089 0.57-0.718 0.654-0.985 0.164l0.219-0.055v-0.055c-0.398-0.063-0.227-0.321-0.328-0.602z"></path>
<path fill="#fcfafc" style="fill: var(--color47, #fcfafc)" d="M15.371 17.504c0.11 0.449 0.615 0.345 0.985 0.297 0.814-0.107 1.75-0.18 2.571-0.187-0.184-0.26-0.643-0.164-0.93-0.164-0.879 0-1.75 0.017-2.626 0.055z"></path>
<path fill="#d5d3d4" style="fill: var(--color48, #d5d3d4)" d="M15.097 17.559l-0.055 0.328v0.055h0.219l-0.164-0.383z"></path>
<path fill="#bcbcbc" style="fill: var(--color49, #bcbcbc)" d="M14.058 17.614l-0.164 0.492v0.055l0.274 0.055-0.109-0.602z"></path>
<path fill="#8b8989" style="fill: var(--color50, #8b8989)" d="M18.051 17.723v0.109h0.109v-0.109h-0.109z"></path>
<path fill="#c6c5c6" style="fill: var(--color51, #c6c5c6)" d="M16.301 17.778v0.055h0.766l-0.766-0.055z"></path>
<path fill="#737273" style="fill: var(--color52, #737273)" d="M15.48 17.887v0.055l2.571-0.109c-0.687-0.288-1.83 0.055-2.571 0.055z"></path>
<path fill="#bab8b7" style="fill: var(--color53, #bab8b7)" d="M18.161 17.778v0.055h0.273l-0.273-0.055z"></path>
<path fill="#dcdada" style="fill: var(--color54, #dcdada)" d="M2.68 17.832v0.055l0.492 0.109-0.492-0.164z"></path>
<path fill="#cdcbcc" style="fill: var(--color55, #cdcbcc)" d="M8.041 17.832v0.055h0.219l-0.219-0.055z"></path>
<path fill="#a19f9f" style="fill: var(--color56, #a19f9f)" d="M8.26 17.832v0.055h0.547l-0.547-0.055z"></path>
<path fill="#aba9aa" style="fill: var(--color57, #aba9aa)" d="M15.809 17.832v0.055h0.492l-0.492-0.055z"></path>
<path fill="#cfcdcd" style="fill: var(--color58, #cfcdcd)" d="M17.559 17.832v0.055h0.547l-0.547-0.055z"></path>
<path fill="#777575" style="fill: var(--color59, #777575)" d="M4.814 18.325v0.055l1.696-0.024 2.297-0.414c-0.54-0.227-1.22 0.077-1.75 0.2-0.747 0.173-1.478 0.182-2.243 0.182z"></path>
<path fill="#7e7c7c" style="fill: var(--color4, #7e7c7c)" d="M8.971 17.887v0.109l2.626 0.766v-0.109l-2.626-0.766z"></path>
<path fill="#cdcdcd" style="fill: var(--color60, #cdcdcd)" d="M16.957 17.887v0.055h0.547l-0.547-0.055z"></path>
<path fill="#b1afb0" style="fill: var(--color61, #b1afb0)" d="M8.26 17.942v0.055h0.547l-0.547-0.055z"></path>
<path fill="#b7b8b7" style="fill: var(--color62, #b7b8b7)" d="M14.496 17.942v0.055h0.274l-0.274-0.055z"></path>
<path fill="#7b7c7c" style="fill: var(--color63, #7b7c7c)" d="M14.332 17.997v0.055l0.93-0.055h-0.93z"></path>
<path fill="#d4d2d3" style="fill: var(--color11, #d4d2d3)" d="M3.173 17.997v0.055h0.219l-0.219-0.055z"></path>
<path fill="#818080" style="fill: var(--color64, #818080)" d="M8.916 17.997c-0.043 0.122-0.089 0.219 0.055 0.219-0.042 0.401 0.154 1.229 0.492 1.477l-0.547-1.696z"></path>
<path fill="#ddd" style="fill: var(--color65, #ddd)" d="M14.715 18.051v0.055h0.492l-0.055 0.219h0.055l0.055-0.328-0.547 0.055z"></path>
<path fill="#807e7e" style="fill: var(--color66, #807e7e)" d="M15.48 17.997l-0.219 0.602c0.23-0.128 0.322-0.353 0.219-0.602z"></path>
<path fill="#d4d2d2" style="fill: var(--color67, #d4d2d2)" d="M3.009 18.051v0.055l0.219 0.055-0.219-0.109z"></path>
<path fill="#797777" style="fill: var(--color68, #797777)" d="M3.173 18.051v0.055l0.821 0.164-0.821-0.219z"></path>
<path fill="#dbd9d9" style="fill: var(--color69, #dbd9d9)" d="M7.603 18.106v0.055l0.383-0.055h-0.383z"></path>
<path fill="#cfcdce" style="fill: var(--color70, #cfcdce)" d="M3.61 18.106v0.055h0.328l-0.328-0.055z"></path>
<path fill="#b9b7b7" style="fill: var(--color71, #b9b7b7)" d="M6.838 18.106v0.055h0.328l-0.328-0.055z"></path>
<path fill="#fbfafb" style="fill: var(--color72, #fbfafb)" d="M14.277 18.161c0.174 0.484 0.781 0.395 0.93-0.055l-0.93 0.055z"></path>
<path fill="#c8c6c6" style="fill: var(--color73, #c8c6c6)" d="M3.938 18.161v0.055h0.274l-0.273-0.055z"></path>
<path fill="#c4c2c2" style="fill: var(--color74, #c4c2c2)" d="M6.564 18.161v0.055h0.274l-0.274-0.055z"></path>
<path fill="#d2d0d1" style="fill: var(--color75, #d2d0d1)" d="M9.026 18.161v0.273h0.055l-0.055-0.273z"></path>
<path fill="#bab7b8" style="fill: var(--color76, #bab7b8)" d="M13.456 18.215v0.055l0.274-0.055h-0.274z"></path>
<path fill="#7d7c7c" style="fill: var(--color77, #7d7c7c)" d="M12.308 18.762l1.75-0.547c-0.37-0.15-1.515 0.233-1.75 0.547z"></path>
<path fill="#504e4e" style="fill: var(--color78, #504e4e)" d="M3.993 18.215v0.055h0.219l-0.219-0.055z"></path>
<path fill="#a09f9f" style="fill: var(--color79, #a09f9f)" d="M3.993 18.27v0.055l2.079 0.109v-0.055h-1.258v-0.055h1.203c-0.487-0.204-1.499-0.109-2.024-0.055z"></path>
<path fill="#bcbaba" style="fill: var(--color80, #bcbaba)" d="M4.321 18.215v0.055h0.328l-0.328-0.055z"></path>
<path fill="#c1bfbf" style="fill: var(--color81, #c1bfbf)" d="M6.127 18.215v0.055h0.383l-0.383-0.055z"></path>
<path fill="#2d2829" style="fill: var(--color82, #2d2829)" d="M8.916 18.215v0.164h0.055l-0.055-0.164z"></path>
<path fill="#bebcbc" style="fill: var(--color83, #bebcbc)" d="M9.846 18.215v0.055h0.164l-0.164-0.055z"></path>
<path fill="#2c2c2c" style="fill: var(--color84, #2c2c2c)" d="M4.431 18.27v0.055h0.219l-0.219-0.055z"></path>
<path fill="#383535" style="fill: var(--color85, #383535)" d="M6.181 18.27v0.055h0.274l-0.274-0.055z"></path>
<path fill="#d5d3d4" style="fill: var(--color48, #d5d3d4)" d="M15.316 18.27l-0.164 0.219 0.164 0.055v-0.273z"></path>
<path fill="#aaaaac" style="fill: var(--color86, #aaaaac)" d="M10.612 18.38v0.055h0.164l-0.164-0.055z"></path>
<path fill="#adabac" style="fill: var(--color87, #adabac)" d="M14.55 18.489v0.055h0.328l-0.328-0.055z"></path>
<path fill="#cccaca" style="fill: var(--color7, #cccaca)" d="M10.721 18.544v0.055l0.274 0.055v-0.055l-0.274-0.055z"></path>
<path fill="#9c9a9a" style="fill: var(--color88, #9c9a9a)" d="M14.496 18.598v0.055h0.383l-0.383-0.055z"></path>
<path fill="#545253" style="fill: var(--color89, #545253)" d="M15.207 18.598l-1.088 1.696-0.662 1.039h0.055l1.805-2.735h-0.109z"></path>
<path fill="#b3b1b2" style="fill: var(--color90, #b3b1b2)" d="M11.597 18.653v0.055h0.711l-0.711-0.055z"></path>
<path fill="#3c3a3a" style="fill: var(--color91, #3c3a3a)" d="M11.597 18.708v0.055h0.711l-0.711-0.055z"></path>
<path fill="#a5a3a3" style="fill: var(--color92, #a5a3a3)" d="M11.542 18.762v0.055h0.766l-0.766-0.055z"></path>
<path fill="#b0adae" style="fill: var(--color93, #b0adae)" d="M9.463 19.638l0.055 0.219h0.055l-0.109-0.219z"></path>
<path fill="#575455" style="fill: var(--color94, #575455)" d="M9.409 19.692l0.109 0.328h0.055l-0.164-0.328z"></path>
<path fill="#b3b2b2" style="fill: var(--color95, #b3b2b2)" d="M9.573 19.856v0.164h0.055l-0.055-0.164z"></path>
<path fill="#696667" style="fill: var(--color96, #696667)" d="M9.573 20.020c0.064 0.359 0.283 0.792 0.602 0.985l-0.602-0.985z"></path>
<path fill="#d0cecf" style="fill: var(--color97, #d0cecf)" d="M11.979 20.95v0.055l0.055 0.109 0.109-0.164h-0.164z"></path>
<path fill="#3a3738" style="fill: var(--color98, #3a3738)" d="M10.174 21.005v0.164h0.055l-0.055-0.164z"></path>
<path fill="#9d9b9b" style="fill: var(--color99, #9d9b9b)" d="M11.597 21.279l0.492-0.219c-0.218-0.075-0.359 0.051-0.492 0.219z"></path>
<path fill="#605e5f" style="fill: var(--color100, #605e5f)" d="M10.229 21.060c0.054 0.524 0.452 1.762 0.93 2.024-0.197-0.595-0.526-1.542-0.93-2.024z"></path>
<path fill="#6f6c6d" style="fill: var(--color101, #6f6c6d)" d="M13.402 21.224c-0.070 0.851-0.474 1.369-0.883 2.079-0.119 0.206-0.385 0.758-0.685 0.474-0.437-0.413 0.523-1.246-0.127-1.677 0.050 0.219 0.183 0.423 0.145 0.656-0.055 0.333-0.488 0.798-0.121 1.117 0.356 0.309 0.678-0.145 0.841-0.405 0.32-0.509 1.197-1.588 0.831-2.243z"></path>
<path fill="#858383" style="fill: var(--color102, #858383)" d="M11.542 21.279c-0.094 0.318-0.049 0.617 0.164 0.875l-0.055-0.875h-0.109z"></path>
<path fill="#aba8a9" style="fill: var(--color103, #aba8a9)" d="M13.347 21.333v0.164h0.055l-0.055-0.164z"></path>
<path fill="#a8a7a7" style="fill: var(--color104, #a8a7a7)" d="M11.432 21.388v0.438h0.055l-0.055-0.438z"></path>
<path fill="#d5d3d4" style="fill: var(--color48, #d5d3d4)" d="M13.456 21.388l-0.109 0.766h0.055l0.055-0.766z"></path>
<path fill="#cac8c9" style="fill: var(--color105, #cac8c9)" d="M11.542 21.443v0.273h0.055l-0.055-0.273z"></path>
<path fill="#b4b2b2" style="fill: var(--color106, #b4b2b2)" d="M13.292 21.552v0.164h0.055l-0.055-0.164z"></path>
<path fill="#dcd9da" style="fill: var(--color107, #dcd9da)" d="M10.503 21.88l0.055 0.383h0.055l-0.109-0.383z"></path>
<path fill="#969595" style="fill: var(--color108, #969595)" d="M13.183 22.099v0.164h0.055l-0.055-0.164z"></path>
<path fill="#8e8c8d" style="fill: var(--color109, #8e8c8d)" d="M11.925 22.373v0.438h0.055l-0.055-0.438z"></path>
<path fill="#dbd9da" style="fill: var(--color110, #dbd9da)" d="M11.815 22.427v0.438h0.055l-0.055-0.438z"></path>
<path fill="#696767" style="fill: var(--color111, #696767)" d="M11.159 23.084c-0.056 0.368 0.202 1.134 0.492 1.368l-0.492-1.368z"></path>
<path fill="#dad8d9" style="fill: var(--color112, #dad8d9)" d="M11.706 23.303v0.438h0.055l-0.055-0.438z"></path>
<path fill="#d1cfcf" style="fill: var(--color113, #d1cfcf)" d="M11.268 23.412l0.055 0.273h0.055l-0.109-0.273z"></path>
<path fill="#cccacb" style="fill: var(--color114, #cccacb)" d="M11.87 23.85v0.055h0.274l-0.274-0.055z"></path>
<path fill="#d1cfd0" style="fill: var(--color115, #d1cfd0)" d="M12.089 23.959v0.055l0.219-0.055h-0.219z"></path>
<path fill="#aaa8a9" style="fill: var(--color116, #aaa8a9)" d="M11.815 23.959v0.055h0.274l-0.274-0.055z"></path>
<path fill="#c4c2c3" style="fill: var(--color117, #c4c2c3)" d="M11.432 24.068l0.055 0.383h0.055l-0.109-0.383z"></path>
<path fill="#aba9aa" style="fill: var(--color57, #aba9aa)" d="M11.597 24.178v0.164h0.055l-0.055-0.164z"></path>
<path fill="#dedcdc" style="fill: var(--color118, #dedcdc)" d="M11.651 24.342l0.055 0.875h0.055l-0.109-0.875z"></path>
<path fill="#8a8a8a" style="fill: var(--color119, #8a8a8a)" d="M11.542 24.451v0.273h0.055l-0.055-0.273z"></path>
<path fill="#282527" style="fill: var(--color120, #282527)" d="M11.597 24.451v0.547h0.055l-0.055-0.547z"></path>
<path fill="#8d8b8b" style="fill: var(--color17, #8d8b8b)" d="M11.651 24.615v0.273h0.055l-0.055-0.273z"></path>
<path fill="#afadae" style="fill: var(--color121, #afadae)" d="M11.542 24.725v0.273h0.055l-0.055-0.273z"></path>
<path fill="#aaa8a9" style="fill: var(--color116, #aaa8a9)" d="M11.815 25.491v0.164h0.055l-0.055-0.164z"></path>
<path fill="#c9c7c8" style="fill: var(--color122, #c9c7c8)" d="M11.87 25.655l0.055 0.273h0.055l-0.109-0.273z"></path>
<path fill="#656364" style="fill: var(--color123, #656364)" d="M11.815 25.819v0.109l0.109-0.109h-0.109z"></path>
<path fill="#40403f" style="fill: var(--color124, #40403f)" d="M11.925 25.928l0.274 0.93h0.055l-0.328-0.93z"></path>
<path fill="#d2d0d0" style="fill: var(--color125, #d2d0d0)" d="M12.034 26.092l0.055 0.273h0.055l-0.109-0.273z"></path>
<path fill="#757373" style="fill: var(--color126, #757373)" d="M12.253 26.803l0.055 0.328h0.055l-0.109-0.328z"></path>
<path fill="#b3b1b1" style="fill: var(--color127, #b3b1b1)" d="M12.253 27.022v0.547h0.055l-0.055-0.547z"></path>
<path fill="#000" style="fill: var(--color2, #000)" d="M12.308 27.132v0.711h0.055l-0.055-0.711z"></path>
<path fill="#9a9999" style="fill: var(--color128, #9a9999)" d="M12.362 27.132v0.711h0.055l-0.055-0.711z"></path>
<path fill="#cdcbcc" style="fill: var(--color55, #cdcbcc)" d="M12.198 27.569l0.055 2.024h0.055l-0.109-2.024z"></path>
<path fill="#8e8c8d" style="fill: var(--color109, #8e8c8d)" d="M12.253 27.569v0.547h0.055l-0.055-0.547z"></path>
<path fill="#3d3a3b" style="fill: var(--color129, #3d3a3b)" d="M12.308 27.843v1.094h0.055l-0.055-1.094z"></path>
<path fill="#b3b1b1" style="fill: var(--color127, #b3b1b1)" d="M12.362 27.843v1.641h0.055l-0.055-1.641z"></path>
<path fill="#706e6e" style="fill: var(--color130, #706e6e)" d="M12.253 28.116v1.149h0.055l-0.055-1.149z"></path>
<path fill="#8c8a8b" style="fill: var(--color131, #8c8a8b)" d="M13.62 28.28l0.492 0.93c0.261-0.382-0.111-0.823-0.492-0.93z"></path>
<path fill="#181717" style="fill: var(--color132, #181717)" d="M12.308 28.937v0.656h0.055l-0.055-0.656z"></path>
<path fill="#747272" style="fill: var(--color133, #747272)" d="M13.566 29.812h0.055l0.492-0.656c-0.301 0.128-0.503 0.325-0.547 0.656z"></path>
<path fill="#5e5c5c" style="fill: var(--color134, #5e5c5c)" d="M12.362 29.484l0.109 0.656h0.055l-0.164-0.656z"></path>
<path fill="#a7a4a5" style="fill: var(--color135, #a7a4a5)" d="M12.417 29.538v0.273h0.055l-0.055-0.273z"></path>
<path fill="#cecccd" style="fill: var(--color136, #cecccd)" d="M12.308 29.648v0.219h0.055l-0.055-0.219z"></path>
<path fill="#a7a5a5" style="fill: var(--color137, #a7a5a5)" d="M13.511 29.703v0.492h0.109l-0.109-0.492z"></path>
<path fill="#d4d2d2" style="fill: var(--color67, #d4d2d2)" d="M13.456 29.757v0.438h0.055l-0.055-0.438z"></path>
<path fill="#b4b2b2" style="fill: var(--color106, #b4b2b2)" d="M12.472 29.812v0.164h0.055l-0.055-0.164z"></path>
<path fill="#b8b6b7" style="fill: var(--color138, #b8b6b7)" d="M12.527 29.976v0.164h0.055l-0.055-0.164z"></path>
<path fill="#b0aeaf" style="fill: var(--color139, #b0aeaf)" d="M12.49 30.177v0z"></path>
<path fill="#787676" style="fill: var(--color140, #787676)" d="M12.527 30.14c0.085 0.474 0.482 0.981 0.821 1.313-0.051-0.407-0.528-1.023-0.82-1.313z"></path>
<path fill="#b5b3b3" style="fill: var(--color141, #b5b3b3)" d="M12.599 30.177v0z"></path>
<path fill="#454344" style="fill: var(--color142, #454344)" d="M13.566 30.195v0.164h0.055l-0.055-0.164z"></path>
<path fill="#bebcbd" style="fill: var(--color143, #bebcbd)" d="M13.584 30.395v0z"></path>
<path fill="#7b787a" style="fill: var(--color144, #7b787a)" d="M13.62 30.359c0.090 0.395 0.507 0.748 0 0.985 0.214 0.13 0.446-0.006 0.416-0.274-0.029-0.255-0.228-0.548-0.416-0.711z"></path>
<path fill="#bcbaba" style="fill: var(--color80, #bcbaba)" d="M13.62 30.523v0z"></path>
<path fill="#bfbdbe" style="fill: var(--color145, #bfbdbe)" d="M13.858 30.669v0z"></path>
<path fill="#bcbabb" style="fill: var(--color146, #bcbabb)" d="M13.894 31.015v0.219h0.055l-0.055-0.219z"></path>
<path fill="#dcdada" style="fill: var(--color54, #dcdada)" d="M13.839 31.398v0.055h2.844l-0.93-0.055h-1.915z"></path>
<path fill="#000" style="fill: var(--color2, #000)" d="M13.347 31.398l0.438 0.109v-0.055l-0.438-0.055z"></path>
<path fill="#858483" style="fill: var(--color147, #858483)" d="M13.402 31.398v0.055h0.219l-0.219-0.055z"></path>
<path fill="#a2a0a0" style="fill: var(--color148, #a2a0a0)" d="M11.432 31.453v0.109l0.766-0.055-0.766-0.055z"></path>
<path fill="#7a7778" style="fill: var(--color149, #7a7778)" d="M12.144 31.508v0.055l1.149-0.055c-0.305-0.128-0.835-0.093-1.149 0z"></path>
<path fill="#504e4e" style="fill: var(--color78, #504e4e)" d="M12.855 31.508v0.055h3.501l-1.039-0.109-2.462 0.055z"></path>
<path fill="#7a7979" style="fill: var(--color150, #7a7979)" d="M16.246 31.453v0.055l0.875 0.055v-0.109h-0.875z"></path>
<path fill="#b7b5b6" style="fill: var(--color151, #b7b5b6)" d="M17.121 31.453c-0.348 0.264-1.158 0.109-1.586 0.109h-4.103v0.055h4.376c0.21 0 1.408 0.089 1.313-0.164z"></path>
<path fill="#373535" style="fill: var(--color152, #373535)" d="M13.894 31.508v0.055h1.422l-1.422-0.055z"></path>
<path fill="#1c1617" style="fill: var(--color153, #1c1617)" d="M15.316 31.508v0.055h0.766l-0.766-0.055z"></path>
</symbol>
</defs>
</svg>
